# xmcd
#
# Track frame offsets:
# 150
# 11724
# 24569
# 38999
# 55721
# 71274
# 85586
# 98701
# 112424
# 131791
#
# Disc length: 1936 seconds
#
#
# Revision: 0
# Processed by: cddbd v1.5.2PL0 Copyright (c) Steve Scherf et al.
# Submitted via: FreeRIP 2.945 
#
DISCID=80078e0a
DTITLE=Bill Anderson - Scorpio
DYEAR=1900
DGENRE=Country
TTITLE0=Head To Toe
TTITLE1=Come Back
TTITLE2=We Held On
TTITLE3=Movie Queen
TTITLE4=Still The One
TTITLE5=Velvet And Steel
TTITLE6=Mama Never Got To Rock Us
TTITLE7=Love Song For Jackie
TTITLE8=This Ole Suitcase
TTITLE9=You're Worth Waiting For
EXTD=
EXTT0=
EXTT1=
EXTT2=
EXTT3=
EXTT4=
EXTT5=
EXTT6=
EXTT7=
EXTT8=
EXTT9=
PLAYORDER=
